<?xml version="1.0" encoding="utf-8"?>
<!-- Generator: Adobe Illustrator 27.5.0, SVG Export Plug-In . SVG Version: 6.00 Build 0)  -->
<svg version="1.1" xmlns="http://www.w3.org/2000/svg" xmlns:xlink="http://www.w3.org/1999/xlink" x="0px" y="0px"
	 viewBox="0 0 500 500" style="enable-background:new 0 0 500 500;" xml:space="preserve">
<g id="BACKGROUND">
	<g>
		<g>
			<g style="opacity:0.18;">
				<g>
					<g>
						<g>
							<path style="fill:#9FBFFF;" d="M419.216,412.143c20.78-21.244,36.413-51.719,38.413-81.74
								c2.074-31.145-6.839-60.853,1.035-92.344c4.502-18.007,12.994-35.011,15.517-53.401
								c11.922-86.888-120.679-173.632-183.433-96.461c-4.302,5.29-7.996,11.23-13.441,15.334
								c-6.785,5.114-16.024,6.802-24.18,4.418c-13.149-3.843-23.532-15.216-36.138-20.798c-11.412-5.054-23.531-8.323-35.917-9.826
								c-24.588-2.984-49.983,0.998-72.688,10.806c-45.352,19.591-77.222,62.774-74.612,113.209
								c1.544,29.846,15.782,57.582,32.447,82.39c31.874,47.451,73.683,87.943,120.925,120.126
								c38.171,26.004,81.47,47.109,127.607,49.255C355.539,455.009,392.911,439.035,419.216,412.143z"/>
						</g>
					</g>
				</g>
			</g>
			<g style="opacity:0.47;">
				<g>
					<g>
						<g>
							<path style="fill:#9FBFFF;" d="M466.802,276.642c0.063-27.537-9.257-57.874-27.336-79.098
								c-18.756-22.018-43.877-35.98-59.006-61.977c-8.651-14.865-14.006-31.644-24.218-45.484
								c-48.251-65.392-192.359-37.265-184.136,54.534c0.564,6.293,1.951,12.624,0.989,18.869
								c-1.199,7.781-6.242,14.874-13.197,18.564c-11.214,5.948-25.459,5.11-37.436,9.553c-10.843,4.022-21.002,9.685-30.197,16.694
								c-18.253,13.913-32.539,32.972-41.272,54.161c-17.445,42.323-10.689,91.594,23.646,123.391
								c20.319,18.817,47.7,28.026,74.8,33.725c51.834,10.899,105.766,10.755,157.934,1.583
								c42.151-7.411,84.54-21.388,116.558-49.787C452.237,346.262,466.722,311.499,466.802,276.642z"/>
						</g>
					</g>
				</g>
			</g>
			<g style="opacity:0.17;">
				<path style="fill:#9FBFFF;" d="M477.75,72.038c6.559-10.132,1.632-24.977-11.004-33.158
					c-12.637-8.18-36.977-12.281-43.536-2.149c-6.559,10.132,12.885,23.494,20.781,35.551
					C455.003,89.098,471.191,82.171,477.75,72.038z"/>
			</g>
			<g style="opacity:0.47;">
				<g>
					<g>
						<g>
							<path style="fill:#9FBFFF;" d="M419.042,305.617c3.357-18.249,0.83-39.485-8.602-55.733
								c-9.784-16.856-24.759-29.137-31.66-48.194c-3.946-10.897-5.476-22.666-10.581-33.071
								c-24.118-49.164-123.049-47.864-128.648,13.989c-0.384,4.24-0.226,8.605-1.616,12.629c-1.732,5.014-5.929,9.11-10.984,10.719
								c-8.151,2.594-17.494,0.323-25.971,1.827c-7.673,1.361-15.09,3.893-22.03,7.433c-13.777,7.027-25.543,17.944-33.884,30.94
								c-16.661,25.96-18.113,59.44,0.823,84.655c11.206,14.922,28.251,24.324,45.533,31.365
								c33.054,13.466,68.829,19.863,104.52,20.063c28.839,0.161,58.625-4.003,83.272-18.977
								C401.003,350.023,414.792,328.719,419.042,305.617z"/>
						</g>
					</g>
				</g>
			</g>
			<g style="opacity:0.31;">
				<path style="fill:#9FBFFF;" d="M436.246,127.237c-0.918,3.351-4.379,5.323-7.73,4.405c-3.351-0.918-5.323-4.379-4.405-7.73
					c0.918-3.351,4.379-5.323,7.73-4.405C435.192,120.425,437.164,123.885,436.246,127.237z"/>
			</g>
			<g style="opacity:0.31;">
				
					<ellipse transform="matrix(0.6981 -0.716 0.716 0.6981 -254.0488 289.0218)" style="fill:#9FBFFF;" cx="215.712" cy="445.775" rx="9.793" ry="9.793"/>
			</g>
			<g style="opacity:0.31;">
				<path style="fill:#9FBFFF;" d="M64.148,183.844c-0.391,2.236-2.521,3.732-4.757,3.34c-2.236-0.391-3.732-2.521-3.341-4.757
					c0.391-2.236,2.521-3.732,4.757-3.341C63.043,179.478,64.539,181.608,64.148,183.844z"/>
			</g>
		</g>
	</g>
	<circle style="fill:#4E69FF;" cx="468.233" cy="406.556" r="3.5"/>
	<circle style="opacity:0.47;fill:#9FBFFF;" cx="449.986" cy="449.86" r="3.5"/>
	<circle style="fill:#9FBFFF;" cx="128.246" cy="53.872" r="2.72"/>
	<path style="fill:#4E69FF;" d="M240.589,30.745c0,2.68-2.172,4.852-4.852,4.852c-2.68,0-4.852-2.172-4.852-4.852
		s2.172-4.852,4.852-4.852C238.417,25.893,240.589,28.065,240.589,30.745z"/>
	<path style="fill:#4E69FF;" d="M68.618,79.041c0,2.526-2.047,4.573-4.573,4.573c-2.526,0-4.573-2.047-4.573-4.573
		c0-2.525,2.047-4.573,4.573-4.573C66.571,74.469,68.618,76.516,68.618,79.041z"/>
	<circle style="fill:#9FBFFF;" cx="103.107" cy="440.46" r="2.72"/>
	<path style="fill:#4E69FF;" d="M76.062,439.695c-2.103-1.398-2.675-4.237-1.277-6.34c1.398-2.103,4.237-2.675,6.34-1.276
		c2.103,1.398,2.675,4.237,1.277,6.34C81.003,440.521,78.165,441.093,76.062,439.695z"/>
	<path style="fill:#1B1B25;" d="M440.4,420.104c-0.79-0.525-1.004-1.591-0.479-2.38c0.525-0.79,1.591-1.004,2.38-0.479
		c0.79,0.525,1.004,1.591,0.479,2.38C442.256,420.415,441.19,420.629,440.4,420.104z"/>
</g>
<g id="OBJECTS">
	<g>
		<g>
			<path style="opacity:0.56;fill:#292930;" d="M336.869,147.773l-16.92,12.511l-8.607-19.279l13.849-11.016
				C325.191,129.989,335.653,133.797,336.869,147.773z"/>
			<g>
				<path style="fill:#1B1B25;" d="M327.204,131.136L202.731,60.172c-2.473-1.41-5.488-1.491-8.033-0.215l-17.419,8.733l0.001,0.014
					c2.261-1.166,5.069-1.288,7.593,0.151l125.41,71.498c5.976,3.407,9.666,9.758,9.666,16.637v267.867
					c0,2.686-1.406,4.876-3.396,6.126l0.008,0.005l13.859-7.926c3.988-2.281,6.45-6.524,6.45-11.119V147.773
					C336.869,140.894,333.18,134.543,327.204,131.136z"/>
				<path style="fill:#292930;" d="M319.949,424.858V156.991c0-6.879-3.69-13.229-9.666-16.637l-125.41-71.498
					c-2.524-1.439-5.332-1.317-7.593-0.151c-2.504,1.291-4.337,3.865-4.337,7.082v266.78c0,6.008,3.201,11.561,8.399,14.572
					l127.723,73.991c2.509,1.453,5.34,1.203,7.488-0.147C318.543,429.735,319.949,427.544,319.949,424.858z"/>
			</g>
			<polygon style="fill:#FFFFFF;" points="313.304,391.751 179.588,314.288 179.588,98.294 313.304,173.708 			"/>
			<polygon style="fill:#FFFFFF;" points="313.304,391.751 179.588,314.288 179.588,98.294 313.304,173.708 			"/>
			<polygon style="fill:#9FBFFF;" points="313.304,391.751 179.588,314.288 179.588,98.294 313.304,173.708 			"/>
			<path style="fill:#FFFFFF;" d="M261.279,130.854c-0.488,0-0.978-0.128-1.423-0.386l-23.02-13.288
				c-0.877-0.507-1.423-1.451-1.423-2.464v-0.187c0-1.033,0.535-1.955,1.431-2.469c0.895-0.515,1.96-0.508,2.852,0.013
				l23.021,13.475c0.868,0.508,1.408,1.449,1.408,2.456c0,1.029-0.531,1.95-1.423,2.464
				C262.257,130.725,261.769,130.854,261.279,130.854z M238.259,112.68c-0.315,0-0.63,0.082-0.918,0.247
				c-0.581,0.333-0.928,0.932-0.928,1.601v0.187c0,0.657,0.354,1.27,0.923,1.598l23.02,13.288c0.579,0.335,1.271,0.334,1.846,0
				c0.578-0.333,0.923-0.931,0.923-1.598c0-0.653-0.35-1.263-0.913-1.593l-23.02-13.475C238.9,112.765,238.58,112.68,238.259,112.68
				z"/>
			<path style="fill:#FFFFFF;" d="M237.088,377.723c-3.635,0-7.629-2.688-9.927-7.066c-1.433-2.732-2.005-5.712-1.611-8.393
				c0.402-2.739,1.76-4.844,3.824-5.926c2.064-1.085,4.567-1.003,7.05,0.222c2.429,1.2,4.556,3.365,5.988,6.096
				c1.433,2.73,2.005,5.711,1.612,8.392c-0.402,2.739-1.76,4.845-3.824,5.927C239.232,377.482,238.176,377.723,237.088,377.723z
				 M232.51,356.581c-0.951,0-1.855,0.214-2.671,0.642c-1.773,0.931-2.945,2.771-3.299,5.187c-0.363,2.473,0.172,5.237,1.508,7.782
				c2.729,5.2,7.97,7.845,11.688,5.897c1.773-0.931,2.945-2.772,3.299-5.188c0.363-2.473-0.172-5.236-1.508-7.781
				c-1.335-2.545-3.305-4.557-5.545-5.663C234.801,356.874,233.623,356.581,232.51,356.581z"/>
			<polygon style="opacity:0.56;fill:#292930;" points="336.869,241.731 319.949,251.757 319.949,184.844 336.869,174.593 			"/>
			<path style="fill:#CCCCCC;" d="M327.05,228.281c-0.659,0-1.318-0.172-1.923-0.516c-1.228-0.7-1.96-1.961-1.96-3.374v-29.668
				c0-1.35,0.717-2.622,1.871-3.321l2.72-1.648c1.214-0.737,2.678-0.76,3.917-0.062c1.237,0.697,1.977,1.962,1.977,3.383v29.705
				c0,1.365-0.73,2.645-1.903,3.34l-2.72,1.612C328.411,228.098,327.73,228.281,327.05,228.281z M329.768,190.188
				c-0.514,0-1.027,0.141-1.492,0.422l-2.72,1.647c-0.857,0.519-1.389,1.464-1.389,2.466v29.668c0,1.049,0.544,1.986,1.455,2.505
				c0.912,0.52,1.996,0.51,2.896-0.024l2.72-1.612l0,0c0.872-0.516,1.413-1.466,1.413-2.48v-29.705c0-1.055-0.549-1.994-1.468-2.512
				C330.738,190.313,330.253,190.188,329.768,190.188z"/>
		</g>
		<g>
			<g>
				<g>
					
						<ellipse transform="matrix(0.8855 -0.4645 0.4645 0.8855 -69.7218 153.5867)" style="fill:#3A5CE8;" cx="276.834" cy="218.289" rx="24.184" ry="29.848"/>
					
						<ellipse transform="matrix(0.8855 -0.4646 0.4646 0.8855 -70.0423 152.2894)" style="fill:#4E69FF;" cx="274.037" cy="218.289" rx="21.707" ry="29.848"/>
				</g>
				<g>
					<g>
						<path style="fill:#3A5CE8;" d="M101.271,93.315v50.781c0,3.503,1.86,6.742,4.884,8.508l118.086,68.947
							c6.808,3.975,15.362-0.936,15.362-8.82v-54.053c0-5.721-3.093-10.995-8.085-13.788L114.636,79.501
							c-5.986-3.349-13.365,0.978-13.365,7.838V93.315z"/>
						<polygon style="fill:#3A5CE8;" points="239.603,182.87 249.403,198.19 239.603,203.597 						"/>
					</g>
					<path style="fill:#4E69FF;" d="M97.405,95.414v50.781c0,3.503,1.86,6.742,4.884,8.508l118.086,68.947
						c6.808,3.975,15.362-0.936,15.362-8.819v-54.053c0-5.721-3.093-10.995-8.085-13.788L110.77,81.601
						c-5.986-3.349-13.365,0.978-13.365,7.838V95.414z"/>
					<path style="fill:#FFFFFF;" d="M221.43,175.155c-0.167,0-0.336-0.042-0.491-0.129l-46.625-26.378
						c-0.481-0.272-0.65-0.882-0.378-1.363c0.272-0.481,0.884-0.65,1.363-0.378l46.626,26.378c0.481,0.272,0.65,0.882,0.378,1.363
						C222.117,174.972,221.778,175.155,221.43,175.155z"/>
					<path style="fill:#FFFFFF;" d="M155.321,137.754c-0.167,0-0.336-0.042-0.491-0.129l-39.522-22.36
						c-0.481-0.272-0.65-0.882-0.378-1.363c0.271-0.481,0.884-0.649,1.362-0.379l39.522,22.36c0.481,0.272,0.65,0.882,0.378,1.363
						C156.008,137.571,155.669,137.754,155.321,137.754z"/>
					<path style="fill:#FFFFFF;" d="M157.236,164.641c-0.167,0-0.336-0.041-0.491-0.13l-44.399-25.118
						c-0.481-0.272-0.65-0.882-0.378-1.363c0.271-0.481,0.882-0.65,1.362-0.378l44.399,25.119c0.481,0.272,0.65,0.882,0.378,1.362
						C157.923,164.458,157.584,164.641,157.236,164.641z"/>
					<path style="fill:#FFFFFF;" d="M198.117,174.985c-0.167,0-0.336-0.042-0.491-0.129l-45.561-25.776
						c-0.481-0.272-0.65-0.882-0.378-1.363c0.272-0.481,0.884-0.65,1.363-0.378l45.561,25.776c0.481,0.272,0.65,0.882,0.378,1.363
						C198.804,174.803,198.465,174.985,198.117,174.985z"/>
					<path style="fill:#FFFFFF;" d="M152.556,149.209c-0.167,0-0.336-0.042-0.491-0.129l-39.776-22.503
						c-0.481-0.272-0.65-0.882-0.378-1.363c0.272-0.481,0.883-0.65,1.363-0.378l39.776,22.503c0.481,0.272,0.65,0.882,0.378,1.363
						C153.243,149.026,152.904,149.209,152.556,149.209z"/>
					<polygon style="fill:#4E69FF;" points="235.737,184.969 245.537,200.289 235.737,205.697 					"/>
				</g>
				<path style="fill:#FFFFFF;" d="M278.28,219.917l-3.049-1.043c0.826,0.062,1.649-0.053,2.426-0.38
					c3.268-1.376,4.49-5.883,2.729-10.066c-1.761-4.183-5.839-6.458-9.107-5.082c-3.268,1.376-4.49,5.883-2.729,10.066
					c0.825,1.96,2.162,3.493,3.682,4.436l-2.021-0.691c-3.418-1.169-6.918,1.537-6.918,5.35v3.527c0,0.718,0.392,1.37,1.004,1.674
					l17.451,8.645c1.413,0.7,3.033-0.395,3.033-2.05v-4.91C284.781,225.071,282.154,221.243,278.28,219.917z"/>
			</g>
			<g>
				<g>
					
						<ellipse transform="matrix(0.8855 -0.4645 0.4645 0.8855 -105.0401 131.0256)" style="fill:#E29837;" cx="213.389" cy="278.686" rx="24.184" ry="29.848"/>
					
						<ellipse transform="matrix(0.8855 -0.4645 0.4645 0.8855 -105.36 129.7257)" style="fill:#FFB54A;" cx="210.592" cy="278.686" rx="21.707" ry="29.848"/>
				</g>
				<g>
					<g>
						<path style="fill:#E29837;" d="M263.814,275.023v50.781c0,3.502,1.86,6.742,4.884,8.508l118.086,68.947
							c6.808,3.975,15.362-0.936,15.362-8.819v-54.053c0-5.721-3.093-10.995-8.085-13.788L277.18,261.209
							c-5.986-3.349-13.365,0.978-13.365,7.837V275.023z"/>
					</g>
					<path style="fill:#FFB54A;" d="M259.948,277.122v50.781c0,3.502,1.86,6.742,4.884,8.508l118.086,68.947
						c6.808,3.975,15.362-0.935,15.362-8.819v-54.053c0-5.721-3.093-10.995-8.085-13.788l-116.881-65.389
						c-5.986-3.349-13.365,0.978-13.365,7.838V277.122z"/>
					<path style="fill:#FFFFFF;" d="M383.974,356.863c-0.167,0-0.336-0.042-0.491-0.13l-46.626-26.379
						c-0.48-0.271-0.65-0.882-0.378-1.362c0.272-0.48,0.883-0.65,1.362-0.378l46.626,26.379c0.48,0.271,0.65,0.882,0.378,1.362
						C384.661,356.681,384.322,356.863,383.974,356.863z"/>
					<path style="fill:#FFFFFF;" d="M317.864,319.462c-0.167,0-0.336-0.042-0.491-0.13l-39.522-22.359
						c-0.48-0.271-0.65-0.882-0.378-1.362c0.271-0.482,0.883-0.65,1.362-0.378l39.522,22.359c0.48,0.272,0.65,0.882,0.378,1.362
						C318.552,319.279,318.213,319.462,317.864,319.462z"/>
					<path style="fill:#FFFFFF;" d="M319.779,346.349c-0.167,0-0.336-0.042-0.491-0.13l-44.399-25.118
						c-0.48-0.271-0.65-0.882-0.378-1.362c0.272-0.48,0.884-0.648,1.362-0.378l44.4,25.118c0.48,0.272,0.65,0.882,0.378,1.362
						C320.467,346.166,320.128,346.349,319.779,346.349z"/>
					<path style="fill:#FFFFFF;" d="M360.66,356.693c-0.167,0-0.336-0.042-0.491-0.13l-45.561-25.776
						c-0.48-0.272-0.65-0.882-0.378-1.362c0.272-0.48,0.883-0.649,1.362-0.378l45.561,25.776c0.48,0.271,0.65,0.882,0.378,1.362
						C361.348,356.511,361.009,356.693,360.66,356.693z"/>
					<path style="fill:#FFFFFF;" d="M315.099,330.917c-0.167,0-0.336-0.042-0.491-0.13l-39.776-22.504
						c-0.48-0.272-0.65-0.882-0.378-1.362c0.271-0.481,0.882-0.649,1.362-0.378l39.776,22.504c0.48,0.271,0.65,0.882,0.378,1.362
						C315.786,330.734,315.447,330.917,315.099,330.917z"/>
					<g>
						<polygon style="fill:#E29837;" points="259.948,312.728 248.567,294.987 259.948,288.284 						"/>
						<polygon style="fill:#FFB54A;" points="259.948,312.728 250.148,297.408 259.948,292.001 						"/>
					</g>
				</g>
			</g>
			<path style="fill:#FFFFFF;" d="M213.877,280.314l-3.049-1.043c0.826,0.062,1.649-0.053,2.426-0.38
				c3.268-1.376,4.49-5.883,2.729-10.066c-1.761-4.183-5.839-6.458-9.107-5.082c-3.268,1.376-4.49,5.883-2.729,10.065
				c0.825,1.96,2.162,3.493,3.682,4.436l-2.021-0.691c-3.418-1.169-6.918,1.537-6.918,5.35v3.527c0,0.718,0.392,1.37,1.004,1.674
				l17.451,8.645c1.413,0.7,3.033-0.395,3.033-2.05v-4.91C220.378,285.467,217.752,281.639,213.877,280.314z"/>
		</g>
	</g>
	<g>
		<g>
			<g>
				<g>
					
						<ellipse transform="matrix(0.8855 -0.4646 0.4646 0.8855 -84.4122 240.6339)" style="fill:#3A5CE8;" cx="446.142" cy="291.625" rx="14.075" ry="17.371"/>
					
						<ellipse transform="matrix(0.8855 -0.4645 0.4645 0.8855 -84.5984 239.8767)" style="fill:#4E69FF;" cx="444.515" cy="291.625" rx="12.634" ry="17.371"/>
				</g>
				<g>
					<g>
						<path style="fill:#3A5CE8;" d="M343.967,218.891v29.554c0,2.038,1.082,3.924,2.842,4.951l68.724,40.126
							c3.962,2.314,8.941-0.544,8.941-5.133v-31.458c0-3.329-1.8-6.399-4.706-8.024l-68.023-38.056
							c-3.484-1.949-7.779,0.569-7.779,4.561V218.891z"/>
						<polygon style="fill:#3A5CE8;" points="424.474,271.012 430.178,279.928 424.474,283.075 						"/>
					</g>
					<path style="fill:#4E69FF;" d="M341.717,220.113v29.554c0,2.038,1.082,3.924,2.842,4.951l68.724,40.127
						c3.962,2.314,8.941-0.544,8.941-5.133v-31.458c0-3.329-1.8-6.399-4.706-8.024l-68.023-38.055
						c-3.484-1.949-7.778,0.569-7.778,4.561V220.113z"/>
					<path style="fill:#FFFFFF;" d="M413.898,266.44c-0.084,0-0.168-0.021-0.246-0.065l-27.136-15.352
						c-0.24-0.136-0.325-0.441-0.19-0.682c0.138-0.242,0.44-0.324,0.682-0.189l27.136,15.351c0.24,0.137,0.325,0.441,0.19,0.682
						C414.241,266.349,414.072,266.44,413.898,266.44z"/>
					<path style="fill:#FFFFFF;" d="M375.424,244.673c-0.084,0-0.168-0.021-0.246-0.065l-23.002-13.013
						c-0.24-0.136-0.325-0.441-0.189-0.681c0.138-0.242,0.441-0.325,0.682-0.189l23.002,13.013c0.24,0.136,0.325,0.441,0.189,0.681
						C375.767,244.581,375.598,244.673,375.424,244.673z"/>
					<path style="fill:#FFFFFF;" d="M376.538,260.32c-0.084,0-0.168-0.021-0.246-0.064l-25.84-14.619
						c-0.24-0.136-0.325-0.441-0.189-0.681c0.137-0.242,0.441-0.325,0.682-0.189l25.84,14.618c0.24,0.137,0.325,0.441,0.189,0.682
						C376.881,260.229,376.712,260.32,376.538,260.32z"/>
					<path style="fill:#FFFFFF;" d="M400.331,266.341c-0.084,0-0.168-0.02-0.246-0.064l-26.517-15.002
						c-0.24-0.136-0.325-0.441-0.19-0.681c0.137-0.241,0.441-0.324,0.682-0.189l26.517,15.001c0.24,0.137,0.325,0.441,0.19,0.682
						C400.674,266.25,400.505,266.341,400.331,266.341z"/>
					<path style="fill:#FFFFFF;" d="M373.814,251.34c-0.084,0-0.168-0.021-0.246-0.065l-23.15-13.097
						c-0.24-0.136-0.325-0.441-0.189-0.681c0.138-0.241,0.441-0.325,0.682-0.189l23.149,13.097c0.24,0.136,0.325,0.441,0.19,0.682
						C374.157,251.248,373.988,251.34,373.814,251.34z"/>
					<polygon style="fill:#4E69FF;" points="422.224,272.233 427.928,281.15 422.224,284.296 					"/>
				</g>
				<g>
					<path style="fill:#FFFFFF;" d="M445.462,292.477c-1.817,0-3.699-1.354-4.602-3.495c-0.539-1.28-0.654-2.653-0.325-3.867
						c0.341-1.258,1.115-2.198,2.18-2.646c1.066-0.447,2.28-0.345,3.417,0.29c1.098,0.613,1.999,1.655,2.538,2.935l0,0
						c1.13,2.685,0.299,5.606-1.854,6.514C446.38,292.39,445.923,292.477,445.462,292.477z M444.081,283.194
						c-0.339,0-0.669,0.065-0.978,0.195c-0.775,0.326-1.345,1.031-1.603,1.986c-0.271,0.999-0.171,2.142,0.282,3.217
						c0.916,2.176,2.999,3.387,4.645,2.691c1.646-0.693,2.238-3.027,1.321-5.203l0,0c-0.452-1.075-1.199-1.945-2.103-2.45
						C445.126,283.342,444.593,283.194,444.081,283.194z"/>
					<path style="fill:#FFFFFF;" d="M449.528,302.762c-0.255,0-0.51-0.059-0.748-0.176l-10.155-5.031
						c-0.524-0.26-0.863-0.818-0.863-1.422v-2.053c0-1.251,0.587-2.418,1.571-3.121c0.92-0.658,2.056-0.83,3.117-0.465l4.695,1.605
						c2.466,0.843,4.122,3.249,4.122,5.987v2.858c0,0.647-0.318,1.231-0.852,1.563C450.143,302.677,449.836,302.762,449.528,302.762
						z M441.339,291.308c-0.501,0-0.995,0.158-1.425,0.465c-0.722,0.516-1.152,1.379-1.152,2.308v2.053
						c0,0.227,0.12,0.434,0.307,0.525l10.156,5.031c0.216,0.107,0.458,0.098,0.664-0.032c0.237-0.146,0.379-0.413,0.379-0.712
						v-2.858c0-2.311-1.385-4.337-3.446-5.042l-4.695-1.605C441.868,291.352,441.602,291.308,441.339,291.308z"/>
				</g>
			</g>
			<g>
				<g>
					<g>
						
							<ellipse transform="matrix(0.8856 -0.4645 0.4645 0.8856 -89.1054 48.9066)" style="fill:#E29837;" cx="54.702" cy="205.29" rx="14.322" ry="17.676"/>
						<path style="fill:#FFB54A;" d="M64.429,199.318c4.535,8.645,3.115,18.327-3.173,21.625
							c-6.287,3.298-15.061-1.036-19.596-9.681c-4.535-8.645-3.115-18.327,3.173-21.625
							C51.121,186.338,59.894,190.673,64.429,199.318z"/>
					</g>
					<g>
						<g>
							<path style="fill:#E29837;" d="M84.564,203.12v30.073c0,2.074,1.101,3.992,2.893,5.038l69.932,40.832
								c4.032,2.354,9.098-0.554,9.098-5.223v-32.011c0-3.388-1.831-6.511-4.788-8.166L92.479,194.94
								c-3.545-1.983-7.915,0.579-7.915,4.642V203.12z"/>
						</g>
						<path style="fill:#FFB54A;" d="M82.275,204.363v30.073c0,2.074,1.101,3.992,2.893,5.038l69.932,40.832
							c4.032,2.354,9.098-0.554,9.098-5.223v-32.011c0-3.388-1.832-6.511-4.788-8.165L90.19,196.183
							c-3.545-1.983-7.915,0.579-7.915,4.641V204.363z"/>
						<path style="fill:#FFFFFF;" d="M155.724,251.495c-0.083,0-0.168-0.021-0.246-0.064l-27.612-15.622
							c-0.24-0.136-0.325-0.441-0.189-0.681c0.136-0.24,0.442-0.324,0.681-0.189l27.612,15.622c0.24,0.136,0.325,0.441,0.189,0.681
							C156.068,251.404,155.898,251.495,155.724,251.495z"/>
						<path style="fill:#FFFFFF;" d="M116.574,229.346c-0.083,0-0.168-0.021-0.246-0.065l-23.406-13.242
							c-0.24-0.136-0.325-0.441-0.189-0.681c0.136-0.24,0.442-0.325,0.681-0.189l23.406,13.242c0.24,0.136,0.325,0.441,0.189,0.681
							C116.917,229.254,116.748,229.346,116.574,229.346z"/>
						<path style="fill:#FFFFFF;" d="M117.707,245.269c-0.083,0-0.168-0.021-0.246-0.065l-26.294-14.876
							c-0.24-0.136-0.325-0.441-0.189-0.681c0.135-0.241,0.441-0.325,0.681-0.189l26.294,14.876c0.24,0.136,0.325,0.441,0.189,0.681
							C118.051,245.177,117.882,245.269,117.707,245.269z"/>
						<path style="fill:#FFFFFF;" d="M141.918,251.395c-0.084,0-0.168-0.021-0.246-0.064l-26.982-15.266
							c-0.24-0.136-0.325-0.441-0.189-0.681c0.136-0.241,0.441-0.324,0.681-0.189l26.982,15.265c0.24,0.136,0.325,0.441,0.189,0.681
							C142.262,251.304,142.092,251.395,141.918,251.395z"/>
						<path style="fill:#FFFFFF;" d="M114.936,236.129c-0.084,0-0.168-0.021-0.246-0.065l-23.556-13.327
							c-0.24-0.136-0.325-0.441-0.189-0.681c0.136-0.241,0.441-0.325,0.681-0.189l23.556,13.327c0.24,0.136,0.325,0.441,0.189,0.681
							C115.28,236.038,115.11,236.129,114.936,236.129z"/>
						<g>
							<polygon style="fill:#E29837;" points="82.275,225.45 75.534,214.943 82.275,210.974 							"/>
							<polygon style="fill:#FFB54A;" points="82.275,225.45 76.471,216.377 82.275,213.175 							"/>
						</g>
					</g>
				</g>
				<g>
					<path style="fill:#FFFFFF;" d="M54.366,205.959c-1.846,0.001-3.758-1.375-4.674-3.551c-1.148-2.727-0.303-5.695,1.883-6.616
						c1.081-0.455,2.313-0.35,3.469,0.294c1.116,0.623,2.032,1.682,2.579,2.982l0,0c1.148,2.727,0.304,5.695-1.883,6.616
						C55.298,205.871,54.834,205.959,54.366,205.959z M52.962,196.515c-0.347,0-0.683,0.066-0.999,0.199
						c-1.678,0.706-2.283,3.087-1.349,5.306c0.934,2.219,3.058,3.45,4.739,2.743c1.678-0.706,2.283-3.087,1.349-5.306l0,0
						c-0.461-1.096-1.223-1.982-2.145-2.496C54.027,196.664,53.483,196.515,52.962,196.515z"/>
					<path style="fill:#FFFFFF;" d="M58.503,216.426c-0.257,0-0.516-0.059-0.756-0.178l-10.334-5.12
						c-0.53-0.263-0.873-0.828-0.873-1.439V207.6c0-1.27,0.596-2.455,1.595-3.168c0.935-0.669,2.087-0.84,3.164-0.473l4.778,1.634
						c2.505,0.857,4.188,3.302,4.188,6.084v2.908c0,0.656-0.322,1.247-0.862,1.582C59.126,216.339,58.815,216.426,58.503,216.426z
						 M50.172,204.77c-0.512,0-1.017,0.161-1.456,0.475c-0.737,0.526-1.176,1.407-1.176,2.355v2.089
						c0,0.235,0.125,0.448,0.316,0.543l10.335,5.12c0.222,0.11,0.472,0.099,0.684-0.034c0.244-0.151,0.39-0.425,0.39-0.732v-2.908
						c0-2.354-1.411-4.419-3.512-5.138l-4.778-1.634C50.711,204.814,50.44,204.77,50.172,204.77z"/>
				</g>
			</g>
		</g>
		<g style="opacity:0.49;">
			<g>
				<g>
					<path style="fill:#3A5CE8;" d="M157.857,328.256c3.597,6.857,2.009,14.778-3.546,17.692
						c-5.556,2.914-12.975-0.281-16.572-7.138s-2.009-14.778,3.546-17.692C146.841,318.204,154.261,321.399,157.857,328.256z"/>
					<path style="fill:#4E69FF;" d="M155.514,328.797c3.597,6.857,2.47,14.536-2.516,17.152c-4.987,2.616-11.945-0.822-15.542-7.678
						c-3.597-6.857-2.47-14.536,2.516-17.152C144.958,318.502,151.917,321.94,155.514,328.797z"/>
				</g>
				<g>
					<g>
						<path style="fill:#3A5CE8;" d="M65.335,274.832v23.852c0,1.645,0.874,3.167,2.294,3.996l55.466,32.385
							c3.198,1.867,7.216-0.439,7.216-4.143v-25.389c0-2.687-1.453-5.164-3.798-6.476l-54.9-30.714
							c-2.812-1.573-6.278,0.459-6.278,3.681V274.832z"/>
						<polygon style="fill:#3A5CE8;" points="130.31,316.896 134.914,324.092 130.31,326.632 						"/>
					</g>
					<path style="fill:#4E69FF;" d="M63.519,275.818v23.852c0,1.645,0.873,3.167,2.294,3.996l55.466,32.385
						c3.198,1.867,7.216-0.439,7.216-4.143v-25.389c0-2.687-1.453-5.164-3.798-6.476l-54.9-30.714
						c-2.812-1.573-6.278,0.459-6.278,3.681V275.818z"/>
					<path style="fill:#FFFFFF;" d="M121.774,313.303c-0.083,0-0.168-0.021-0.246-0.064l-21.901-12.39
						c-0.24-0.137-0.325-0.441-0.189-0.682c0.136-0.241,0.441-0.326,0.681-0.189l21.901,12.39c0.24,0.137,0.325,0.441,0.189,0.682
						C122.118,313.212,121.949,313.303,121.774,313.303z"/>
					<path style="fill:#FFFFFF;" d="M90.723,295.735c-0.083,0-0.168-0.021-0.246-0.065l-18.564-10.503
						c-0.24-0.137-0.325-0.441-0.189-0.682c0.136-0.241,0.442-0.325,0.681-0.189L90.969,294.8c0.24,0.137,0.325,0.441,0.189,0.682
						C91.066,295.645,90.897,295.735,90.723,295.735z"/>
					<path style="fill:#FFFFFF;" d="M91.622,308.364c-0.083,0-0.168-0.02-0.246-0.064l-20.855-11.799
						c-0.24-0.137-0.325-0.441-0.189-0.682c0.136-0.241,0.441-0.325,0.681-0.189l20.855,11.799c0.24,0.137,0.325,0.441,0.189,0.682
						C91.966,308.273,91.796,308.364,91.622,308.364z"/>
					<path style="fill:#FFFFFF;" d="M110.824,313.223c-0.084,0-0.168-0.021-0.246-0.064l-21.401-12.106
						c-0.24-0.137-0.325-0.441-0.189-0.682c0.135-0.241,0.441-0.325,0.681-0.189l21.401,12.106c0.24,0.137,0.325,0.441,0.189,0.682
						C111.168,313.132,110.998,313.223,110.824,313.223z"/>
					<path style="fill:#FFFFFF;" d="M89.423,301.116c-0.083,0-0.168-0.021-0.246-0.064l-18.683-10.57
						c-0.24-0.137-0.325-0.441-0.189-0.682c0.136-0.241,0.441-0.325,0.681-0.189l18.683,10.57c0.24,0.137,0.325,0.441,0.189,0.682
						C89.767,301.025,89.598,301.116,89.423,301.116z"/>
					<polygon style="fill:#4E69FF;" points="128.494,317.882 133.098,325.078 128.494,327.618 					"/>
				</g>
				<g>
					<path style="fill:#FFFFFF;" d="M147.25,334.315c-1.505,0-3.061-1.114-3.804-2.879c-0.443-1.053-0.538-2.184-0.267-3.184
						c0.283-1.044,0.928-1.825,1.815-2.199c0.887-0.374,1.897-0.288,2.841,0.238c0.905,0.505,1.647,1.363,2.091,2.415
						c0.933,2.216,0.238,4.631-1.549,5.384C148.016,334.243,147.635,334.315,147.25,334.315z M146.135,326.826
						c-0.261,0-0.514,0.049-0.751,0.149c-0.598,0.252-1.038,0.798-1.239,1.539c-0.213,0.786-0.134,1.686,0.224,2.533
						c0.719,1.708,2.347,2.657,3.622,2.121c1.278-0.538,1.734-2.366,1.015-4.073c-0.357-0.849-0.945-1.533-1.656-1.931
						C146.945,326.94,146.531,326.826,146.135,326.826z"/>
					<path style="fill:#FFFFFF;" d="M150.53,342.618c-0.22,0-0.44-0.051-0.646-0.152l-8.197-4.06
						c-0.455-0.226-0.749-0.71-0.749-1.234v-1.656c0-1.041,0.489-2.012,1.308-2.598c0.769-0.551,1.718-0.693,2.603-0.389l3.79,1.297
						c2.028,0.692,3.392,2.672,3.392,4.923v2.307c0,0.556-0.274,1.059-0.733,1.343C151.061,342.544,150.796,342.618,150.53,342.618z
						 M143.923,333.373c-0.385,0-0.765,0.121-1.095,0.358c-0.557,0.398-0.89,1.065-0.89,1.784v1.656c0,0.147,0.076,0.28,0.194,0.338
						l8.197,4.061c0.196,0.098,0.362,0.028,0.442-0.021c0.163-0.102,0.26-0.285,0.26-0.493v-2.307c0-1.824-1.091-3.422-2.715-3.977
						l-3.79-1.297C144.328,333.406,144.124,333.373,143.923,333.373z"/>
				</g>
			</g>
			<g>
				<g>
					<g>
						
							<ellipse transform="matrix(0.8855 -0.4646 0.4646 0.8855 -31.1388 183.0648)" style="fill:#E29837;" cx="355.945" cy="154.726" rx="11.658" ry="14.388"/>
						<path style="fill:#FFB54A;" d="M363.863,149.865c3.691,7.037,2.535,14.917-2.582,17.602c-5.118,2.685-12.259-0.843-15.95-7.88
							c-3.691-7.037-2.535-14.917,2.582-17.602C353.03,139.301,360.171,142.829,363.863,149.865z"/>
					</g>
					<g>
						<g>
							<path style="fill:#E29837;" d="M380.251,152.96v24.478c0,1.688,0.896,3.25,2.354,4.101l56.921,33.235
								c3.282,1.916,7.405-0.451,7.405-4.251v-26.055c0-2.758-1.491-5.3-3.897-6.646l-56.341-31.52
								c-2.886-1.614-6.443,0.471-6.443,3.778V152.96z"/>
						</g>
						<path style="fill:#FFB54A;" d="M378.388,153.972v24.478c0,1.688,0.896,3.25,2.354,4.101l56.921,33.235
							c3.282,1.916,7.405-0.451,7.405-4.251V185.48c0-2.758-1.491-5.3-3.897-6.646l-56.341-31.52
							c-2.886-1.614-6.442,0.471-6.442,3.778V153.972z"/>
						<path style="fill:#FFFFFF;" d="M438.173,192.428c-0.084,0-0.168-0.021-0.246-0.065l-22.476-12.715
							c-0.24-0.136-0.325-0.441-0.189-0.681c0.137-0.242,0.44-0.324,0.682-0.189l22.475,12.715c0.24,0.136,0.325,0.441,0.19,0.681
							C438.516,192.336,438.347,192.428,438.173,192.428z"/>
						<path style="fill:#FFFFFF;" d="M406.306,174.399c-0.084,0-0.168-0.021-0.246-0.065l-19.051-10.778
							c-0.24-0.136-0.325-0.441-0.19-0.681c0.137-0.242,0.441-0.325,0.682-0.189l19.051,10.778c0.24,0.136,0.325,0.441,0.189,0.681
							C406.648,174.308,406.479,174.399,406.306,174.399z"/>
						<path style="fill:#FFFFFF;" d="M407.228,187.36c-0.084,0-0.168-0.021-0.246-0.065l-21.401-12.108
							c-0.24-0.136-0.325-0.441-0.189-0.681c0.138-0.242,0.44-0.325,0.682-0.189l21.401,12.108c0.24,0.136,0.325,0.441,0.19,0.681
							C407.571,187.269,407.402,187.36,407.228,187.36z"/>
						<path style="fill:#FFFFFF;" d="M426.935,192.346c-0.084,0-0.168-0.021-0.246-0.065l-21.962-12.425
							c-0.24-0.136-0.325-0.441-0.19-0.681c0.138-0.241,0.44-0.324,0.682-0.189l21.962,12.425c0.24,0.136,0.325,0.441,0.189,0.681
							C427.277,192.255,427.108,192.346,426.935,192.346z"/>
						<path style="fill:#FFFFFF;" d="M404.973,179.921c-0.084,0-0.168-0.021-0.246-0.065l-19.174-10.847
							c-0.24-0.136-0.325-0.441-0.189-0.681c0.138-0.241,0.44-0.325,0.682-0.189l19.174,10.847c0.24,0.136,0.325,0.441,0.189,0.681
							C405.315,179.83,405.146,179.921,404.973,179.921z"/>
						<g>
							<polygon style="fill:#E29837;" points="378.388,171.136 372.902,162.583 378.388,159.353 							"/>
							<polygon style="fill:#FFB54A;" points="378.388,171.136 373.664,163.751 378.388,161.144 							"/>
						</g>
					</g>
				</g>
				<g>
					<path style="fill:#FFFFFF;" d="M355.673,155.364c-1.539,0-3.13-1.141-3.892-2.947c-0.954-2.268-0.244-4.738,1.582-5.507
						c0.906-0.381,1.939-0.295,2.905,0.244c0.926,0.517,1.686,1.395,2.14,2.472l0,0c0,0,0,0,0,0l0,0
						c0.454,1.077,0.551,2.234,0.273,3.258c-0.289,1.068-0.948,1.867-1.855,2.249C356.455,155.29,356.065,155.363,355.673,155.364z
						 M354.528,147.677c-0.27,0-0.531,0.051-0.776,0.155c-1.319,0.555-1.789,2.438-1.049,4.197c0.74,1.757,2.413,2.738,3.734,2.183
						c0.618-0.26,1.072-0.824,1.279-1.589c0.219-0.809,0.138-1.735-0.23-2.608v0c-0.367-0.873-0.973-1.579-1.705-1.987
						C355.365,147.794,354.938,147.677,354.528,147.677z"/>
					<path style="fill:#FFFFFF;" d="M359.04,163.884c-0.225,0-0.448-0.052-0.657-0.155l-8.412-4.168
						c-0.463-0.23-0.762-0.723-0.762-1.255v-1.7c0-1.064,0.5-2.057,1.337-2.655c0.784-0.562,1.751-0.708,2.66-0.397l3.889,1.33
						c2.076,0.71,3.472,2.736,3.472,5.04v2.367c0,0.566-0.278,1.077-0.745,1.367C359.581,163.808,359.31,163.884,359.04,163.884z
						 M352.258,154.396c-0.397,0-0.79,0.126-1.131,0.369c-0.574,0.411-0.918,1.099-0.918,1.841v1.7c0,0.156,0.081,0.297,0.206,0.359
						l8.411,4.167c0.21,0.104,0.381,0.029,0.468-0.023c0.171-0.106,0.272-0.299,0.272-0.517v-2.367c0-1.877-1.123-3.522-2.796-4.094
						l-3.889-1.33C352.677,154.431,352.467,154.396,352.258,154.396z"/>
				</g>
			</g>
		</g>
	</g>
	<g>
		<g>
			<path style="fill:#C12736;" d="M307.154,81.186c-0.026,2.899-3.174,4.687-5.677,3.226l-14.761-8.619l-6.311-3.685
				c-1.159-0.677-1.871-1.918-1.871-3.26V43.595c0-2.883,3.101-4.702,5.617-3.294l21.303,11.918
				c1.203,0.673,1.944,1.949,1.932,3.328L307.154,81.186z"/>
			<polygon style="fill:#C12736;" points="289.381,89.421 286.715,75.793 295.284,80.795 			"/>
			<path style="fill:#F13C45;" d="M304.952,82.479c-0.026,2.898-3.174,4.687-5.677,3.226l-14.761-8.618l-6.311-3.685
				c-1.159-0.677-1.871-1.918-1.871-3.26V44.888c0-2.883,3.101-4.701,5.617-3.294l21.303,11.918
				c1.203,0.673,1.944,1.949,1.932,3.328L304.952,82.479z"/>
			<polygon style="fill:#F13C45;" points="289.381,89.421 284.514,77.086 293.082,82.089 			"/>
			<g>
				<path style="fill:#FFFFFF;" d="M298.875,65.736c0.055-0.563-0.001-1.19-0.194-1.877c-0.555-1.957-2.096-3.764-3.844-4.516
					c-1.883-0.807-3.544-0.283-4.257,1.128c-0.526-1.944-2.056-3.822-3.946-4.623c-2.302-0.972-4.182-0.055-4.427,2.12
					c-0.23,2.056,1.185,4.406,2.609,6.419c1.716,2.459,3.424,4.955,5.196,7.396c0.142,0.197,4.946-2.021,5.409-2.234
					C296.955,68.841,298.664,67.907,298.875,65.736z"/>
			</g>
		</g>
		<g>
			<path style="fill:#C12736;" d="M337.113,110.429c-0.012,1.335-1.462,2.159-2.616,1.486l-6.801-3.971l-2.908-1.698
				c-0.534-0.312-0.862-0.883-0.862-1.502V93.111c0-1.328,1.429-2.166,2.588-1.518l9.814,5.491c0.554,0.31,0.896,0.898,0.89,1.533
				L337.113,110.429z"/>
			<polygon style="fill:#C12736;" points="328.926,114.223 327.697,107.945 331.645,110.25 			"/>
			<path style="fill:#F13C45;" d="M336.099,111.025c-0.012,1.335-1.462,2.159-2.616,1.486l-6.8-3.971l-2.908-1.698
				c-0.534-0.312-0.862-0.883-0.862-1.502V93.707c0-1.328,1.429-2.166,2.588-1.518l9.814,5.491c0.554,0.31,0.896,0.898,0.89,1.533
				L336.099,111.025z"/>
			<polygon style="fill:#F13C45;" points="328.926,114.223 326.683,108.541 330.63,110.845 			"/>
			<g>
				<path style="fill:#FFFFFF;" d="M333.299,103.312c0.025-0.259,0-0.548-0.09-0.865c-0.255-0.901-0.966-1.734-1.771-2.08
					c-0.867-0.372-1.633-0.131-1.961,0.52c-0.242-0.896-0.947-1.761-1.818-2.13c-1.061-0.448-1.927-0.025-2.039,0.977
					c-0.106,0.947,0.546,2.03,1.202,2.957c0.791,1.133,1.577,2.283,2.394,3.407c0.065,0.091,2.279-0.931,2.492-1.029
					C332.415,104.742,333.202,104.312,333.299,103.312z"/>
			</g>
		</g>
	</g>
</g>
<g id="DESIGNED_BY_FREEPIK">
	<g>
		<g>
			<g id="XMLID_197_">
				<g id="XMLID_216_">
					<path id="XMLID_224_" d="M260.064,463.607c-0.431,0.441-0.8,0.927-1.104,1.447l-0.463-0.24c-0.067-0.296-0.348-0.5-0.656-0.464
						c-0.33,0.039-0.565,0.337-0.527,0.667c0.039,0.33,0.337,0.565,0.667,0.527c0.065-0.008,0.126-0.026,0.183-0.052l0.45,0.233
						c-0.25,0.552-0.431,1.134-0.537,1.737l0.743,0.131c0.229-1.301,0.846-2.497,1.785-3.459L260.064,463.607z"/>
					<path id="XMLID_223_" d="M265.529,461.314c-0.17,0-0.339,0.006-0.508,0.017l-0.073-0.624c0.187-0.149,0.295-0.388,0.265-0.642
						c-0.046-0.392-0.401-0.672-0.792-0.625c-0.392,0.046-0.672,0.401-0.626,0.792c0.03,0.253,0.189,0.459,0.403,0.561l0.073,0.622
						c-0.711,0.116-1.397,0.331-2.052,0.643l0.326,0.681c0.93-0.445,1.934-0.671,2.983-0.671c0.495,0,0.989,0.053,1.469,0.157
						l0.16-0.738C266.626,461.373,266.078,461.314,265.529,461.314z"/>
					<path id="XMLID_222_" d="M272.106,463.852c0.329-0.04,0.564-0.34,0.523-0.67c-0.04-0.329-0.34-0.564-0.67-0.523
						c-0.308,0.038-0.533,0.303-0.528,0.606l-0.414,0.362c-0.416-0.428-0.886-0.81-1.402-1.135l-0.402,0.639
						c1.13,0.712,2.013,1.719,2.553,2.914l0.688-0.311c-0.25-0.552-0.565-1.068-0.938-1.539l0.4-0.349
						C271.977,463.856,272.04,463.859,272.106,463.852z"/>
					<path id="XMLID_221_" d="M264.984,471.482c-0.384,0.023-0.772,0.035-1.152,0.035c-0.877,0-1.726-0.06-2.469-0.178
						c-0.389-0.062-0.843-0.154-1.265-0.291c1.042,1.854,3.057,3.113,5.367,3.113c2.844,0,5.241-1.909,5.926-4.486
						c-0.679,0.448-1.499,0.822-2.449,1.118C267.767,471.159,266.398,471.397,264.984,471.482z"/>
					<path id="XMLID_217_" d="M265.529,462.824c-3.339,0-6.055,2.656-6.055,5.92c0,0.424,0.046,0.846,0.137,1.256
						c0.671,0.481,2.695,0.886,5.326,0.728c2.868-0.173,5.276-0.954,6.646-2.15c-0.005-0.194-0.021-0.388-0.045-0.579
						C271.159,465.049,268.576,462.824,265.529,462.824z M263.379,469.313c-1.016,0-1.842-0.826-1.842-1.842
						s0.827-1.842,1.842-1.842c1.016,0,1.842,0.827,1.842,1.842S264.395,469.313,263.379,469.313z M268.097,468.409
						c-0.747,0-1.355-0.608-1.355-1.355s0.608-1.355,1.355-1.355c0.747,0,1.355,0.608,1.355,1.355S268.844,468.409,268.097,468.409z
						"/>
				</g>
				<path id="XMLID_214_" d="M281.469,464.684c-0.294-0.116-0.802-0.308-1.377-0.236c-0.549,0.068-0.84,0.339-0.84,1.003v0.862
					h2.219v1.71h-2.219v5.433h-1.924v-5.433h-1.334v-1.71h1.334v-0.885c0-1.673,0.892-2.772,2.558-2.772
					c0.64,0,1.152,0.121,1.584,0.307L281.469,464.684z"/>
				<path id="XMLID_212_" d="M286.153,468.003c-0.176-0.03-0.356-0.046-0.524-0.046c-0.892,0-1.504,0.546-1.504,1.607v3.892h-1.924
					v-7.143h1.865v0.781c0.45-0.671,1.135-0.973,2.012-0.973c0.413,0,0.844,0.127,1.09,0.335L286.153,468.003z"/>
				<path id="XMLID_209_" d="M293.79,469.874c0,0.221-0.015,0.487-0.037,0.649h-5.064c0.206,1.032,0.929,1.482,1.836,1.482
					c0.619,0,1.29-0.251,1.806-0.685l1.128,1.238c-0.811,0.745-1.843,1.084-3.044,1.084c-2.19,0-3.708-1.489-3.708-3.737
					c0-2.249,1.474-3.782,3.612-3.782C292.374,466.121,293.782,467.647,293.79,469.874z M288.696,469.21h3.162
					c-0.177-0.914-0.73-1.43-1.555-1.43C289.396,467.78,288.865,468.326,288.696,469.21z"/>
				<path id="XMLID_206_" d="M301.412,469.874c0,0.221-0.015,0.487-0.037,0.649h-5.064c0.206,1.032,0.929,1.482,1.835,1.482
					c0.619,0,1.29-0.251,1.806-0.685l1.128,1.238c-0.811,0.745-1.843,1.084-3.045,1.084c-2.19,0-3.708-1.489-3.708-3.737
					c0-2.249,1.475-3.782,3.612-3.782C299.997,466.121,301.405,467.647,301.412,469.874z M296.318,469.21h3.163
					c-0.177-0.914-0.73-1.43-1.556-1.43C297.019,467.78,296.488,468.326,296.318,469.21z"/>
				<path id="XMLID_203_" d="M309.725,469.881c0,2.145-1.489,3.76-3.457,3.76c-0.958,0-1.637-0.376-2.101-0.929v3.693h-1.917
					v-10.092h1.88v0.789c0.464-0.582,1.15-0.98,2.131-0.98C308.236,466.121,309.725,467.736,309.725,469.881z M304.07,469.881
					c0,1.128,0.744,1.968,1.835,1.968c1.135,0,1.843-0.877,1.843-1.968c0-1.091-0.708-1.968-1.843-1.968
					C304.815,467.913,304.07,468.753,304.07,469.881z"/>
				<path id="XMLID_200_" d="M312.816,463.976c0,0.693-0.538,1.224-1.231,1.224c-0.693,0-1.224-0.531-1.224-1.224
					c0-0.693,0.531-1.238,1.224-1.238C312.277,462.738,312.816,463.283,312.816,463.976z M312.558,473.456h-1.924v-7.143h1.924
					V473.456z"/>
				<path id="XMLID_198_" d="M315.768,468.856l2.691-2.543h2.359l-3.465,3.362l3.487,3.782h-2.367l-2.705-2.89v2.89h-1.924v-10.616
					h1.924V468.856z"/>
			</g>
			<g>
				<path d="M184.674,473.392v-1.051c-0.525,0.715-1.386,1.226-2.378,1.226c-1.838,0-3.137-1.4-3.137-3.691
					c0-2.247,1.284-3.706,3.137-3.706c0.948,0,1.809,0.467,2.378,1.24v-3.75h1.094v9.731H184.674z M184.674,471.48v-3.195
					c-0.394-0.613-1.24-1.138-2.116-1.138c-1.415,0-2.261,1.167-2.261,2.728c0,1.561,0.846,2.714,2.261,2.714
					C183.434,472.589,184.28,472.093,184.674,471.48z"/>
				<path d="M187.184,469.861c0-2.043,1.459-3.691,3.472-3.691c2.13,0,3.385,1.663,3.385,3.779v0.277h-5.704
					c0.088,1.328,1.021,2.436,2.539,2.436c0.802,0,1.619-0.321,2.174-0.89l0.525,0.715c-0.7,0.7-1.648,1.079-2.801,1.079
					C188.686,473.567,187.184,472.064,187.184,469.861z M190.641,467.075c-1.503,0-2.247,1.269-2.305,2.349h4.625
					C192.946,468.373,192.246,467.075,190.641,467.075z"/>
				<path d="M194.828,472.458l0.569-0.788c0.467,0.54,1.357,1.007,2.32,1.007c1.08,0,1.663-0.511,1.663-1.211
					c0-1.707-4.362-0.656-4.362-3.268c0-1.094,0.948-2.028,2.626-2.028c1.197,0,2.043,0.452,2.612,1.021l-0.511,0.759
					c-0.423-0.511-1.196-0.89-2.101-0.89c-0.963,0-1.561,0.482-1.561,1.109c0,1.546,4.362,0.525,4.362,3.268
					c0,1.182-0.948,2.13-2.772,2.13C196.52,473.567,195.543,473.216,194.828,472.458z"/>
				<path d="M201.671,464.609c0-0.408,0.336-0.744,0.729-0.744c0.408,0,0.744,0.336,0.744,0.744c0,0.409-0.336,0.729-0.744,0.729
					C202.006,465.338,201.671,465.017,201.671,464.609z M201.86,473.392v-7.047h1.094v7.047H201.86z"/>
				<path d="M204.763,475.201l0.554-0.817c0.583,0.7,1.284,0.963,2.291,0.963c1.167,0,2.261-0.569,2.261-2.116v-1.007
					c-0.51,0.715-1.371,1.255-2.364,1.255c-1.838,0-3.137-1.371-3.137-3.647c0-2.261,1.284-3.662,3.137-3.662
					c0.948,0,1.795,0.467,2.364,1.24v-1.065h1.094v6.842c0,2.334-1.634,3.064-3.355,3.064
					C206.412,476.251,205.595,476.018,204.763,475.201z M209.869,471.364v-3.078c-0.379-0.613-1.226-1.138-2.101-1.138
					c-1.415,0-2.261,1.124-2.261,2.684c0,1.547,0.846,2.685,2.261,2.685C208.644,472.516,209.49,471.977,209.869,471.364z"/>
				<path d="M217.543,473.392v-4.61c0-1.24-0.627-1.634-1.576-1.634c-0.861,0-1.678,0.525-2.086,1.094v5.15h-1.094v-7.047h1.094
					v1.021c0.496-0.583,1.459-1.196,2.509-1.196c1.474,0,2.247,0.744,2.247,2.276v4.946H217.543z"/>
				<path d="M220.052,469.861c0-2.043,1.459-3.691,3.472-3.691c2.13,0,3.385,1.663,3.385,3.779v0.277h-5.704
					c0.087,1.328,1.021,2.436,2.538,2.436c0.802,0,1.619-0.321,2.174-0.89l0.525,0.715c-0.7,0.7-1.649,1.079-2.801,1.079
					C221.555,473.567,220.052,472.064,220.052,469.861z M223.51,467.075c-1.503,0-2.247,1.269-2.305,2.349h4.625
					C225.815,468.373,225.115,467.075,223.51,467.075z"/>
				<path d="M233.416,473.392v-1.051c-0.525,0.715-1.386,1.226-2.378,1.226c-1.838,0-3.137-1.4-3.137-3.691
					c0-2.247,1.284-3.706,3.137-3.706c0.948,0,1.81,0.467,2.378,1.24v-3.75h1.094v9.731H233.416z M233.416,471.48v-3.195
					c-0.394-0.613-1.24-1.138-2.116-1.138c-1.415,0-2.261,1.167-2.261,2.728c0,1.561,0.846,2.714,2.261,2.714
					C232.176,472.589,233.022,472.093,233.416,471.48z"/>
				<path d="M239.733,473.392v-9.731h1.094v3.75c0.569-0.773,1.415-1.24,2.378-1.24c1.838,0,3.137,1.459,3.137,3.706
					c0,2.29-1.299,3.691-3.137,3.691c-0.992,0-1.853-0.51-2.378-1.226v1.051H239.733z M242.928,472.589
					c1.43,0,2.276-1.152,2.276-2.714c0-1.561-0.846-2.728-2.276-2.728c-0.861,0-1.721,0.525-2.101,1.138v3.195
					C241.207,472.093,242.067,472.589,242.928,472.589z"/>
				<path d="M247.538,475.157c0.16,0.073,0.423,0.117,0.598,0.117c0.481,0,0.802-0.161,1.05-0.744l0.467-1.065l-2.947-7.12h1.182
					l2.349,5.777l2.334-5.777h1.196l-3.531,8.477c-0.423,1.021-1.138,1.415-2.072,1.43c-0.233,0-0.598-0.044-0.802-0.102
					L247.538,475.157z"/>
			</g>
		</g>
	</g>
</g>
</svg>
